<svg width="970" height="34" viewBox="0 0 970 34" fill="none" xmlns="http://www.w3.org/2000/svg">
<path d="M15.4182 -7.83272e-06L0 32.6697L0.67003 33.1139L16.0882 0.444169L15.4182 -7.83272e-06Z" fill="#00F4BF"/>
<path d="M30.2649 0.000236308L14.8467 32.6699L15.5167 33.1141L30.9349 0.444413L30.2649 0.000236308Z" fill="#00F4BF"/>
<path d="M45.1077 0.000605969L29.6895 32.6703L30.3595 33.1145L45.7777 0.444783L45.1077 0.000605969Z" fill="#00F4BF"/>
<path d="M59.9543 0.00097218L44.5361 32.6707L45.2062 33.1148L60.6244 0.445149L59.9543 0.00097218Z" fill="#00F4BF"/>
<path d="M74.7971 0.00121287L59.3789 32.6709L60.0489 33.1151L75.4672 0.44539L74.7971 0.00121287Z" fill="#00F4BF"/>
<path d="M89.6399 0.00158598L74.2217 32.6713L74.8917 33.1154L90.3099 0.445763L89.6399 0.00158598Z" fill="#00F4BF"/>
<path d="M104.487 0.00194529L89.0688 32.6716L89.7389 33.1158L105.157 0.446122L104.487 0.00194529Z" fill="#00F4BF"/>
<path d="M119.33 0.00218943L103.912 32.6719L104.582 33.1161L120 0.446366L119.33 0.00218943Z" fill="#00F4BF"/>
<path d="M134.177 0.00243357L118.758 32.6721L119.428 33.1163L134.847 0.44661L134.177 0.00243357Z" fill="#00F4BF"/>
<path d="M149.017 0.0068281L133.599 32.6765L134.269 33.1207L149.687 0.451005L149.017 0.0068281Z" fill="#00F4BF"/>
<path d="M163.861 0.00707225L148.442 32.6768L149.112 33.1209L164.531 0.451249L163.861 0.00707225Z" fill="#00F4BF"/>
<path d="M178.707 0.00743846L163.289 32.6771L163.959 33.1213L179.377 0.451615L178.707 0.00743846Z" fill="#00F4BF"/>
<path d="M193.55 0.0076826L178.132 32.6774L178.802 33.1215L194.22 0.451859L193.55 0.0076826Z" fill="#00F4BF"/>
<path d="M208.397 0.00804881L192.979 32.6777L193.649 33.1219L209.067 0.452226L208.397 0.00804881Z" fill="#00F4BF"/>
<path d="M223.239 0.00842882L207.821 32.6781L208.491 33.1223L223.91 0.452606L223.239 0.00842882Z" fill="#00F4BF"/>
<path d="M238.082 0.00864881L222.664 32.6783L223.334 33.1225L238.752 0.452826L238.082 0.00864881Z" fill="#00F4BF"/>
<path d="M252.929 0.00901502L237.511 32.6787L238.181 33.1229L253.599 0.453192L252.929 0.00901502Z" fill="#00F4BF"/>
<path d="M267.772 0.00928331L252.354 32.679L253.024 33.1231L268.442 0.45346L267.772 0.00928331Z" fill="#00F4BF"/>
<path d="M282.615 0.00964952L267.197 32.6793L267.867 33.1235L283.285 0.453826L282.615 0.00964952Z" fill="#00F4BF"/>
<path d="M297.462 0.00986951L282.043 32.6796L282.713 33.1237L298.132 0.454046L297.462 0.00986951Z" fill="#00F4BF"/>
<path d="M312.304 0.0102599L296.886 32.6799L297.556 33.1241L312.974 0.454437L312.304 0.0102599Z" fill="#00F4BF"/>
<path d="M327.151 0.010504L311.733 32.6802L312.403 33.1244L327.821 0.454681L327.151 0.010504Z" fill="#00F4BF"/>
<path d="M341.994 0.0108461L326.576 32.6805L327.246 33.1247L342.664 0.455023L341.994 0.0108461Z" fill="#00F4BF"/>
<path d="M356.837 0.0112123L341.418 32.6809L342.088 33.1251L357.507 0.455389L356.837 0.0112123Z" fill="#00F4BF"/>
<path d="M371.683 0.0114806L356.265 32.6812L356.935 33.1253L372.353 0.455657L371.683 0.0114806Z" fill="#00F4BF"/>
<path d="M387.772 -7.83272e-06L372.354 32.6697L373.024 33.1139L388.442 0.444169L387.772 -7.83272e-06Z" fill="#00F4BF"/>
<path d="M402.618 0.000236308L387.2 32.6699L387.87 33.1141L403.288 0.444413L402.618 0.000236308Z" fill="#00F4BF"/>
<path d="M417.461 0.000605969L402.043 32.6703L402.713 33.1145L418.131 0.444783L417.461 0.000605969Z" fill="#00F4BF"/>
<path d="M432.308 0.00097218L416.89 32.6707L417.56 33.1148L432.978 0.445149L432.308 0.00097218Z" fill="#00F4BF"/>
<path d="M447.151 0.00121287L431.732 32.6709L432.402 33.1151L447.821 0.44539L447.151 0.00121287Z" fill="#00F4BF"/>
<path d="M461.993 0.00158598L446.575 32.6713L447.245 33.1154L462.663 0.445763L461.993 0.00158598Z" fill="#00F4BF"/>
<path d="M476.841 0.00194529L461.422 32.6716L462.092 33.1158L477.511 0.446122L476.841 0.00194529Z" fill="#00F4BF"/>
<path d="M491.683 0.00218943L476.265 32.6719L476.935 33.1161L492.353 0.446366L491.683 0.00218943Z" fill="#00F4BF"/>
<path d="M506.53 0.00243357L491.112 32.6721L491.782 33.1163L507.2 0.44661L506.53 0.00243357Z" fill="#00F4BF"/>
<path d="M521.371 0.0068281L505.953 32.6765L506.623 33.1207L522.041 0.451005L521.371 0.0068281Z" fill="#00F4BF"/>
<path d="M536.214 0.00707225L520.796 32.6768L521.466 33.1209L536.884 0.451249L536.214 0.00707225Z" fill="#00F4BF"/>
<path d="M551.06 0.00743846L535.642 32.6771L536.312 33.1213L551.73 0.451615L551.06 0.00743846Z" fill="#00F4BF"/>
<path d="M565.904 0.0076826L550.485 32.6774L551.155 33.1215L566.574 0.451859L565.904 0.0076826Z" fill="#00F4BF"/>
<path d="M580.75 0.00804881L565.332 32.6777L566.002 33.1219L581.42 0.452226L580.75 0.00804881Z" fill="#00F4BF"/>
<path d="M595.593 0.00842882L580.175 32.6781L580.845 33.1223L596.263 0.452606L595.593 0.00842882Z" fill="#00F4BF"/>
<path d="M610.436 0.00864881L595.018 32.6783L595.688 33.1225L611.106 0.452826L610.436 0.00864881Z" fill="#00F4BF"/>
<path d="M625.282 0.00901502L609.864 32.6787L610.534 33.1229L625.953 0.453192L625.282 0.00901502Z" fill="#00F4BF"/>
<path d="M640.125 0.00928331L624.707 32.679L625.377 33.1231L640.795 0.45346L640.125 0.00928331Z" fill="#00F4BF"/>
<path d="M654.969 0.00964952L639.55 32.6793L640.22 33.1235L655.639 0.453826L654.969 0.00964952Z" fill="#00F4BF"/>
<path d="M669.815 0.00986951L654.397 32.6796L655.067 33.1237L670.485 0.454046L669.815 0.00986951Z" fill="#00F4BF"/>
<path d="M684.658 0.0102599L669.24 32.6799L669.91 33.1241L685.328 0.454437L684.658 0.0102599Z" fill="#00F4BF"/>
<path d="M699.505 0.010504L684.086 32.6802L684.756 33.1244L700.175 0.454681L699.505 0.010504Z" fill="#00F4BF"/>
<path d="M714.347 0.0108461L698.929 32.6805L699.599 33.1247L715.017 0.455023L714.347 0.0108461Z" fill="#00F4BF"/>
<path d="M729.19 0.0112123L713.772 32.6809L714.442 33.1251L729.86 0.455389L729.19 0.0112123Z" fill="#00F4BF"/>
<path d="M744.037 0.0114806L728.619 32.6812L729.289 33.1253L744.707 0.455657L744.037 0.0114806Z" fill="#00F4BF"/>
<path d="M654.969 0.00964952L639.55 32.6793L640.22 33.1235L655.639 0.453826L654.969 0.00964952Z" fill="#00F4BF"/>
<path d="M669.815 0.00986951L654.397 32.6796L655.067 33.1237L670.485 0.454046L669.815 0.00986951Z" fill="#00F4BF"/>
<path d="M684.658 0.0102599L669.24 32.6799L669.91 33.1241L685.328 0.454437L684.658 0.0102599Z" fill="#00F4BF"/>
<path d="M699.505 0.010504L684.086 32.6802L684.756 33.1244L700.175 0.454681L699.505 0.010504Z" fill="#00F4BF"/>
<path d="M714.347 0.0108461L698.929 32.6805L699.599 33.1247L715.017 0.455023L714.347 0.0108461Z" fill="#00F4BF"/>
<path d="M729.19 0.0112123L713.772 32.6809L714.442 33.1251L729.86 0.455389L729.19 0.0112123Z" fill="#00F4BF"/>
<path d="M744.037 0.0114806L728.619 32.6812L729.289 33.1253L744.707 0.455657L744.037 0.0114806Z" fill="#00F4BF"/>
<path d="M654.969 0.00964952L639.55 32.6793L640.22 33.1235L655.639 0.453826L654.969 0.00964952Z" fill="#00F4BF"/>
<path d="M669.815 0.00986951L654.397 32.6796L655.067 33.1237L670.485 0.454046L669.815 0.00986951Z" fill="#00F4BF"/>
<path d="M684.658 0.0102599L669.24 32.6799L669.91 33.1241L685.328 0.454437L684.658 0.0102599Z" fill="#00F4BF"/>
<path d="M699.505 0.010504L684.086 32.6802L684.756 33.1244L700.175 0.454681L699.505 0.010504Z" fill="#00F4BF"/>
<path d="M714.347 0.0108461L698.929 32.6805L699.599 33.1247L715.017 0.455023L714.347 0.0108461Z" fill="#00F4BF"/>
<path d="M729.19 0.0112123L713.772 32.6809L714.442 33.1251L729.86 0.455389L729.19 0.0112123Z" fill="#00F4BF"/>
<path d="M744.037 0.0114806L728.619 32.6812L729.289 33.1253L744.707 0.455657L744.037 0.0114806Z" fill="#00F4BF"/>
<path d="M654.969 0.00964952L639.55 32.6793L640.22 33.1235L655.639 0.453826L654.969 0.00964952Z" fill="#00F4BF"/>
<path d="M669.815 0.00986951L654.397 32.6796L655.067 33.1237L670.485 0.454046L669.815 0.00986951Z" fill="#00F4BF"/>
<path d="M684.658 0.0102599L669.24 32.6799L669.91 33.1241L685.328 0.454437L684.658 0.0102599Z" fill="#00F4BF"/>
<path d="M699.505 0.010504L684.086 32.6802L684.756 33.1244L700.175 0.454681L699.505 0.010504Z" fill="#00F4BF"/>
<path d="M714.347 0.0108461L698.929 32.6805L699.599 33.1247L715.017 0.455023L714.347 0.0108461Z" fill="#00F4BF"/>
<path d="M729.19 0.0112123L713.772 32.6809L714.442 33.1251L729.86 0.455389L729.19 0.0112123Z" fill="#00F4BF"/>
<path d="M744.037 0.0114806L728.619 32.6812L729.289 33.1253L744.707 0.455657L744.037 0.0114806Z" fill="#00F4BF"/>
<path d="M760.125 0.00574327L744.707 32.6754L745.377 33.1196L760.795 0.44992L760.125 0.00574327Z" fill="#00F4BF"/>
<path d="M776.214 0.00571912L760.795 32.6754L761.465 33.1196L776.884 0.449896L776.214 0.00571912Z" fill="#00F4BF"/>
<path d="M792.302 0.00574327L776.884 32.6754L777.554 33.1196L792.972 0.44992L792.302 0.00574327Z" fill="#00F4BF"/>
<path d="M808.39 0.00574327L792.972 32.6754L793.642 33.1196L809.06 0.44992L808.39 0.00574327Z" fill="#00F4BF"/>
<path d="M824.478 0.00571912L809.06 32.6754L809.73 33.1196L825.148 0.449896L824.478 0.00571912Z" fill="#00F4BF"/>
<path d="M840.567 0.00571912L825.148 32.6754L825.818 33.1196L841.237 0.449896L840.567 0.00571912Z" fill="#00F4BF"/>
<path d="M856.655 0.00574327L841.237 32.6754L841.907 33.1196L857.325 0.44992L856.655 0.00574327Z" fill="#00F4BF"/>
<path d="M872.743 0.00574327L857.325 32.6754L857.995 33.1196L873.413 0.44992L872.743 0.00574327Z" fill="#00F4BF"/>
<path d="M888.831 0.00571912L873.413 32.6754L874.083 33.1196L889.501 0.449896L888.831 0.00571912Z" fill="#00F4BF"/>
<path d="M904.92 0.00574327L889.501 32.6754L890.171 33.1196L905.59 0.44992L904.92 0.00574327Z" fill="#00F4BF"/>
<path d="M921.008 0.00574327L905.59 32.6754L906.26 33.1196L921.678 0.44992L921.008 0.00574327Z" fill="#00F4BF"/>
<path d="M937.096 0.00571912L921.678 32.6754L922.348 33.1196L937.766 0.449896L937.096 0.00571912Z" fill="#00F4BF"/>
<path d="M953.184 0.00571912L937.766 32.6754L938.436 33.1196L953.854 0.449896L953.184 0.00571912Z" fill="#00F4BF"/>
<path d="M969.273 0.00574327L953.854 32.6754L954.525 33.1196L969.943 0.44992L969.273 0.00574327Z" fill="#00F4BF"/>
</svg>
