<svg width="197" height="36" viewBox="0 0 197 36" fill="none" xmlns="http://www.w3.org/2000/svg">
<path fill-rule="evenodd" clip-rule="evenodd" d="M35.0721 0V1.54865L36.3185 1.54865V0H44.4201H55.5994C58.0298 0 60 2.01437 60 4.49922C60 6.9539 57.9624 8.86179 55.8618 10.0504C53.1269 11.598 51.2752 14.5779 51.2752 18C51.2752 21.4221 53.1269 24.402 55.8618 25.9496C57.9624 27.1382 60 29.0461 60 31.5008C60 33.9856 58.0298 36 55.5994 36H44.4201H36.3185V34.4513H35.0721V36H30.5539H29.4461H26.7975H4.40058C1.9702 36 0 33.9856 0 31.5008C0 29.0461 2.03765 27.1382 4.13825 25.9496C6.87309 24.402 8.72476 21.4221 8.72476 18C8.72476 14.5779 6.87309 11.598 4.13825 10.0504C2.03765 8.86179 0 6.9539 0 4.49922C0 2.01437 1.9702 0 4.40058 0H26.7975H29.4461H30.5539H35.0721ZM35.0721 4.07962V6.61059H36.3185V4.07962H35.0721ZM35.0721 9.14157V11.6725H36.3185V9.14157H35.0721ZM35.0721 14.2035V16.7345H36.3185V14.2035H35.0721ZM35.0721 19.2655V21.7964H36.3185V19.2655H35.0721ZM35.0721 24.3274V26.8584H36.3185V24.3274H35.0721ZM35.0721 29.3893V31.9203H36.3185V29.3893H35.0721Z" fill="#3567E9"/>
<path fill-rule="evenodd" clip-rule="evenodd" d="M118.728 8.25294V28.4064H124.204V8.25294H118.728ZM119.383 4.82843C119.966 5.3795 120.664 5.65503 121.479 5.65503C122.293 5.65503 122.987 5.3795 123.561 4.82843C124.144 4.26861 124.435 3.59945 124.435 2.82096C124.435 2.05121 124.144 1.3908 123.561 0.839728C122.987 0.27991 122.293 0 121.479 0C120.664 0 119.966 0.27991 119.383 0.839728C118.809 1.3908 118.522 2.05121 118.522 2.82096C118.522 3.59945 118.809 4.26861 119.383 4.82843ZM116.608 8.25294V12.4516H112.893V22.2134C112.893 22.7295 112.97 23.1318 113.124 23.4205C113.279 23.7004 113.493 23.8972 113.767 24.0109C114.05 24.1246 114.376 24.1815 114.744 24.1815C115.001 24.1815 115.258 24.1596 115.516 24.1159C115.773 24.0634 115.97 24.0241 116.107 23.9978L116.968 28.1571C116.694 28.2446 116.308 28.3451 115.811 28.4589C115.314 28.5813 114.71 28.6557 113.999 28.6819C112.679 28.7344 111.522 28.5551 110.528 28.144C109.542 27.7328 108.775 27.0943 108.227 26.2283C107.678 25.3624 107.408 24.269 107.417 22.9482V12.4516H104.717V8.25294H107.417V3.42451H112.893V8.25294H116.608ZM74.1509 27.5404C75.6164 28.3801 77.3647 28.8 79.3958 28.8C81.0242 28.8 82.4597 28.5463 83.7023 28.039C84.9536 27.5229 85.9734 26.8056 86.7619 25.8872C87.5589 24.96 88.086 23.8753 88.3431 22.6333L83.2781 22.2921C83.0896 22.7995 82.8153 23.2281 82.4554 23.5779C82.0954 23.9278 81.6626 24.1902 81.157 24.3652C80.6513 24.5401 80.0943 24.6276 79.4858 24.6276C78.5688 24.6276 77.7761 24.4308 77.1076 24.0372C76.4391 23.6436 75.9206 23.0837 75.5521 22.3577C75.1921 21.6317 75.0122 20.7701 75.0122 19.7729V19.7598H88.4588V18.2247C88.4588 16.5102 88.2231 15.0145 87.7517 13.7374C87.2804 12.4516 86.6205 11.3844 85.772 10.5359C84.9322 9.68747 83.9466 9.0533 82.8153 8.63344C81.6926 8.20483 80.4799 7.99052 79.1773 7.99052C77.2404 7.99052 75.5521 8.42788 74.1123 9.3026C72.6811 10.1773 71.5712 11.3975 70.7828 12.9633C69.9943 14.529 69.6001 16.3484 69.6001 18.4215C69.6001 20.5471 69.9943 22.3883 70.7828 23.9453C71.5712 25.4936 72.6939 26.6919 74.1509 27.5404ZM75.0173 16.2959C75.0503 15.5723 75.2329 14.9118 75.5649 14.3147C75.9249 13.6587 76.422 13.1382 77.0562 12.7533C77.6989 12.3597 78.436 12.1629 79.2673 12.1629C80.0643 12.1629 80.7628 12.3422 81.3627 12.7009C81.9712 13.0508 82.4468 13.5362 82.7896 14.1573C83.1324 14.7783 83.3038 15.4912 83.3038 16.2959H75.0173ZM102.887 18.5096V15.8704H98.5942V18.5096H102.887ZM90.8802 18.5096V15.8704H95.3621V18.5096H90.8802ZM136.064 28.8C134.042 28.8 132.302 28.3626 130.845 27.4879C129.397 26.6045 128.283 25.3799 127.503 23.8141C126.731 22.2484 126.346 20.4465 126.346 18.4084C126.346 16.3441 126.736 14.5334 127.516 12.9764C128.304 11.4107 129.422 10.1904 130.871 9.31572C132.319 8.43225 134.042 7.99052 136.039 7.99052C137.761 7.99052 139.27 8.30979 140.564 8.94834C141.858 9.58688 142.882 10.4835 143.636 11.6381C144.39 12.7927 144.806 14.1485 144.883 15.7055H139.715C139.57 14.6996 139.184 13.8905 138.558 13.2782C137.941 12.6571 137.131 12.3466 136.129 12.3466C135.28 12.3466 134.539 12.5828 133.905 13.0551C133.279 13.5187 132.79 14.1966 132.439 15.0888C132.088 15.981 131.912 17.0613 131.912 18.3297C131.912 19.6155 132.083 20.7089 132.426 21.6098C132.778 22.5108 133.27 23.1974 133.905 23.6698C134.539 24.1421 135.28 24.3783 136.129 24.3783C136.754 24.3783 137.316 24.2471 137.813 23.9847C138.318 23.7223 138.734 23.3418 139.06 22.8432C139.394 22.3359 139.612 21.7279 139.715 21.0194H144.883C144.797 22.5589 144.386 23.9147 143.649 25.0868C142.92 26.2502 141.913 27.1599 140.628 27.8159C139.342 28.472 137.821 28.8 136.064 28.8ZM152.418 22.0077V28.4064H146.941V1.53513H152.418V15.9023H152.713L159.038 8.25294H165.324L158.001 16.9828L165.697 28.4064H159.282L153.902 20.2781L152.418 22.0077ZM174.749 28.8C172.718 28.8 170.969 28.3801 169.504 27.5404C168.047 26.6919 166.924 25.4936 166.136 23.9453C165.347 22.3883 164.953 20.5471 164.953 18.4215C164.953 16.3484 165.347 14.529 166.136 12.9633C166.924 11.3975 168.034 10.1773 169.465 9.3026C170.905 8.42788 172.593 7.99052 174.53 7.99052C175.833 7.99052 177.045 8.20483 178.168 8.63344C179.299 9.0533 180.285 9.68747 181.125 10.5359C181.973 11.3844 182.633 12.4516 183.105 13.7374C183.576 15.0145 183.812 16.5102 183.812 18.2247V19.7598H170.365V19.7729C170.365 20.7701 170.545 21.6317 170.905 22.3577C171.273 23.0837 171.792 23.6436 172.46 24.0372C173.129 24.4308 173.922 24.6276 174.839 24.6276C175.447 24.6276 176.004 24.5401 176.51 24.3652C177.015 24.1902 177.448 23.9278 177.808 23.5779C178.168 23.2281 178.442 22.7995 178.631 22.2921L183.696 22.6333C183.439 23.8753 182.912 24.96 182.115 25.8872C181.326 26.8056 180.306 27.5229 179.055 28.039C177.813 28.5463 176.377 28.8 174.749 28.8ZM170.918 14.3147C170.586 14.9118 170.403 15.5723 170.37 16.2959H178.657C178.657 15.4912 178.485 14.7783 178.142 14.1573C177.8 13.5362 177.324 13.0508 176.716 12.7009C176.116 12.3422 175.417 12.1629 174.62 12.1629C173.789 12.1629 173.052 12.3597 172.409 12.7533C171.775 13.1382 171.278 13.6587 170.918 14.3147ZM196.44 12.4516V8.25294H192.725V3.42451H187.249V8.25294H184.549V12.4516H187.249V22.9482C187.24 24.269 187.51 25.3624 188.059 26.2283C188.607 27.0943 189.374 27.7328 190.36 28.144C191.354 28.5551 192.511 28.7344 193.831 28.6819C194.542 28.6557 195.146 28.5813 195.643 28.4589C196.14 28.3451 196.526 28.2446 196.8 28.1571L195.939 23.9978C195.802 24.0241 195.605 24.0634 195.347 24.1159C195.09 24.1596 194.833 24.1815 194.576 24.1815C194.208 24.1815 193.882 24.1246 193.599 24.0109C193.325 23.8972 193.111 23.7004 192.956 23.4205C192.802 23.1318 192.725 22.7295 192.725 22.2134V12.4516H196.44Z" fill="white"/>
<mask id="mask0_259_564" style="mask-type:alpha" maskUnits="userSpaceOnUse" x="0" y="0" width="60" height="36">
<path fill-rule="evenodd" clip-rule="evenodd" d="M35.0721 0V1.54865L36.3185 1.54865V0H44.4201H55.5994C58.0298 0 60 2.01437 60 4.49922C60 6.9539 57.9624 8.86179 55.8618 10.0504C53.1269 11.598 51.2752 14.5779 51.2752 18C51.2752 21.4221 53.1269 24.402 55.8618 25.9496C57.9624 27.1382 60 29.0461 60 31.5008C60 33.9856 58.0298 36 55.5994 36H44.4201H36.3185V34.4513H35.0721V36H30.5539H29.4461H26.7975H4.40058C1.9702 36 0 33.9856 0 31.5008C0 29.0461 2.03765 27.1382 4.13825 25.9496C6.87309 24.402 8.72476 21.4221 8.72476 18C8.72476 14.5779 6.87309 11.598 4.13825 10.0504C2.03765 8.86179 0 6.9539 0 4.49922C0 2.01437 1.9702 0 4.40058 0H26.7975H29.4461H30.5539H35.0721ZM35.0721 4.07962V6.61059H36.3185V4.07962H35.0721ZM35.0721 9.14157V11.6725H36.3185V9.14157H35.0721ZM35.0721 14.2035V16.7345H36.3185V14.2035H35.0721ZM35.0721 19.2655V21.7964H36.3185V19.2655H35.0721ZM35.0721 24.3274V26.8584H36.3185V24.3274H35.0721ZM35.0721 29.3893V31.9203H36.3185V29.3893H35.0721Z" fill="#3567E9"/>
</mask>
<g mask="url(#mask0_259_564)">
<rect x="35" y="-1" width="35" height="41" fill="#00F4BF"/>
</g>
</svg>
