<svg width="224" height="133" viewBox="0 0 224 133" fill="none" xmlns="http://www.w3.org/2000/svg">
<path fill-rule="evenodd" clip-rule="evenodd" d="M93.0641 132.125L93.0641 126.447L88.4109 126.447L88.4109 132.125L58.1651 132.125L16.4288 132.125C7.35542 132.125 -2.98719e-05 124.739 -2.90754e-05 115.628C-2.82885e-05 106.628 7.60721 99.6321 15.4495 95.2737C25.6595 89.5994 32.5724 78.673 32.5724 66.1253C32.5724 53.5777 25.6595 42.6513 15.4495 36.977C7.60722 32.6186 -2.12068e-05 25.623 -2.042e-05 16.6225C-1.96235e-05 7.51136 7.3554 0.125347 16.4288 0.125348L58.1651 0.125352L88.4109 0.125354L88.4109 5.80394L93.0642 5.80394L93.0642 0.125355L109.932 0.125356L114.068 0.125357L123.956 0.125357L207.571 0.125365C216.645 0.125366 224 7.51138 224 16.6225C224 25.623 216.393 32.6186 208.551 36.977C198.34 42.6513 191.428 53.5777 191.428 66.1254C191.428 78.673 198.34 89.5994 208.551 95.2737C216.393 99.6321 224 106.628 224 115.628C224 124.739 216.645 132.125 207.571 132.125L123.956 132.125L114.068 132.125L109.932 132.125L93.0641 132.125ZM93.0641 117.167L93.0641 107.887L88.4109 107.887L88.4109 117.167L93.0641 117.167ZM93.0642 98.6063L93.0642 89.326L88.4109 89.326L88.4109 98.6063L93.0642 98.6063ZM93.0642 80.0458L93.0642 70.7656L88.4109 70.7656L88.4109 80.0458L93.0642 80.0458ZM93.0642 61.4853L93.0642 52.2051L88.4109 52.2051L88.4109 61.4853L93.0642 61.4853ZM93.0642 42.9249L93.0642 33.6446L88.4109 33.6446L88.4109 42.9249L93.0642 42.9249ZM93.0642 24.3644L93.0642 15.0842L88.4109 15.0842L88.4109 24.3644L93.0642 24.3644Z" fill="#3567E9"/>
</svg>
